<?xml version="1.0" standalone="no"?>
<!DOCTYPE svg PUBLIC "-//W3C//DTD SVG 20010904//EN"
 "http://www.w3.org/TR/2001/REC-SVG-20010904/DTD/svg10.dtd">
<svg version="1.0" xmlns="http://www.w3.org/2000/svg"
 width="700.000000pt" height="700.000000pt" viewBox="0 0 700.000000 700.000000"
 preserveAspectRatio="xMidYMid meet">
<metadata>
Created by potrace 1.11, written by Peter Selinger 2001-2013
</metadata>
<g transform="translate(0.000000,700.000000) scale(0.100000,-0.100000)"
fill="#000000" stroke="none">
<path d="M2219 6401 l-736 -76 -643 -375 c-353 -206 -644 -380 -647 -387 -5
-13 1978 -5043 1989 -5043 13 0 4638 2782 4634 2788 -2 4 -101 302 -219 662
l-216 655 -513 511 -513 512 -1155 416 c-915 329 -1165 416 -1200 415 -25 -1
-376 -36 -781 -78z m2351 -1716 c586 -91 1078 -168 1094 -172 21 -6 -88 -28
-425 -86 -250 -43 -459 -77 -466 -77 -14 0 -1290 487 -1313 501 -10 6 -5 7 15
4 17 -3 509 -80 1095 -170z m-2346 -516 c4 -309 5 -564 2 -567 -5 -5 -625 205
-648 220 -7 4 62 110 172 265 101 142 245 344 319 450 75 106 139 192 142 193
3 0 9 -253 13 -561z"/>
</g>
</svg>
